<svg width="24" height="26" viewBox="0 0 24 26" fill="none" xmlns="http://www.w3.org/2000/svg">
<path d="M4.44688 4.47803C3.95618 4.47803 3.54688 4.89068 3.54688 5.39249V15.3417C3.54688 15.8435 3.95618 16.2623 4.44688 16.2623H19.5429C20.0336 16.2623 20.4429 15.8435 20.4429 15.3417V5.39249C20.4429 4.89065 20.0336 4.47803 19.5429 4.47803H4.44688ZM5.01688 5.26356H18.9729L11.995 10.8305L5.01688 5.26356ZM4.31481 5.69319L9.74498 10.0263L4.31481 14.9672V5.69319ZM19.6748 5.69319V14.9672L14.2446 10.0263L19.6748 5.69319ZM10.3628 10.5173L11.7609 11.6344C11.8988 11.7428 12.0909 11.7428 12.2288 11.6344L13.6269 10.5173L19.0807 15.4765H4.9087L10.3628 10.5173Z" fill="white"/>
</svg>
