<svg width="24" height="25" viewBox="0 0 24 25" fill="none" xmlns="http://www.w3.org/2000/svg">
<path d="M4.34945 6.1016C4.48579 12.3668 9.38945 17.381 15.4776 17.5185C15.5755 17.5303 15.6734 17.5303 15.7828 17.5303C15.8922 17.5303 15.9901 17.5303 16.0843 17.5185C17.5991 17.3614 18.7415 16.0651 18.7415 14.5037C18.7415 14.3544 18.73 14.2111 18.7109 14.0893C18.7109 14.0853 18.709 14.0834 18.709 14.0794V14.0716C18.709 14.0697 18.7071 14.0697 18.7071 14.0677C18.6438 13.5708 18.4556 13.1053 18.1504 12.687C18.1485 12.6851 18.1485 12.683 18.1465 12.6811C18.1446 12.6771 18.1426 12.6733 18.1389 12.6693C18.1274 12.6536 18.1101 12.6438 18.0967 12.6321C18.0755 12.6104 18.0564 12.5889 18.0315 12.5731C18.0065 12.5574 17.9778 12.5496 17.949 12.5397C17.9317 12.5338 17.9163 12.522 17.8971 12.5181L14.4968 11.8857C14.4738 11.8817 14.4507 11.8798 14.4277 11.8798H14.4181C14.4027 11.8798 14.3893 11.8876 14.3759 11.8897C14.3567 11.8916 14.3394 11.8956 14.3202 11.9014C14.2837 11.9113 14.2511 11.925 14.2184 11.9446C14.2107 11.9486 14.205 11.9524 14.1992 11.9583C14.1608 11.9858 14.1282 12.0191 14.1013 12.0604L14.0994 12.0623L14.0803 12.0917C14.0745 12.1035 14.0649 12.1134 14.0591 12.1252L13.0857 13.6571C10.7702 12.8185 8.94641 10.9526 8.12629 8.58397L9.63151 7.58621C9.76597 7.52333 9.85999 7.38387 9.85999 7.22098C9.85999 7.17576 9.85236 7.13261 9.83883 7.09329L9.23012 3.6523C9.21284 3.55215 9.15914 3.46379 9.08039 3.40282C8.67136 3.08855 8.19527 2.89018 7.72103 2.82933C7.58857 2.80576 7.44647 2.7959 7.30048 2.7959C5.77408 2.7959 4.50688 3.96449 4.35527 5.51014C4.34375 5.61029 4.34375 5.71043 4.34375 5.82236C4.34375 5.92059 4.34563 6.00703 4.35339 6.0954C4.35125 6.09978 4.34924 6.1017 4.34924 6.1017L4.34945 6.1016ZM5.12328 5.82473V5.78349C5.12328 5.71869 5.12328 5.65773 5.13091 5.5969C5.24421 4.45777 6.17542 3.59946 7.29856 3.59946H7.30244C7.3907 3.59946 7.47722 3.60535 7.56548 3.61905C7.57311 3.62097 7.58088 3.62097 7.58851 3.62302C7.59427 3.62302 7.60003 3.62494 7.60579 3.62494C7.91878 3.66618 8.2145 3.7781 8.48515 3.9588L9.02851 7.03253L7.43878 8.08525C7.42914 8.09114 7.42151 8.101 7.41186 8.10881C7.40423 8.1147 7.39646 8.12251 7.38695 8.13046C7.35427 8.16183 7.3236 8.19717 7.30445 8.23649C7.30445 8.23841 7.30445 8.23841 7.30258 8.24046C7.28343 8.27978 7.27191 8.32294 7.26615 8.36815C7.26428 8.37801 7.26227 8.38774 7.26227 8.3976C7.26227 8.40541 7.25838 8.41527 7.25838 8.42308C7.25838 8.4624 7.26414 8.50158 7.27566 8.53898V8.54296C8.14926 11.3947 10.3323 13.6298 13.12 14.5234C13.1584 14.5352 13.1988 14.543 13.2371 14.543H13.2389H13.2428C13.2774 14.543 13.3119 14.5371 13.3465 14.5253C13.3599 14.5213 13.3734 14.5155 13.3868 14.5096C13.4059 14.5018 13.4252 14.4919 13.4444 14.4801C13.4598 14.4702 13.4732 14.4605 13.4866 14.4507C13.5 14.4389 13.5135 14.4252 13.525 14.4113C13.5384 14.3956 13.5519 14.3819 13.5634 14.3661C13.5634 14.3642 13.5653 14.3642 13.5653 14.3621L14.6041 12.7261L17.5859 13.28C17.7702 13.5628 17.8873 13.8711 17.9295 14.209C17.9449 14.3013 17.9525 14.4034 17.9525 14.5075C17.9525 15.6565 17.1135 16.6091 15.9961 16.7249C15.9252 16.7327 15.854 16.7327 15.7773 16.7327C15.7043 16.7327 15.6391 16.7327 15.5737 16.7268C15.5564 16.7249 15.5431 16.7249 15.5238 16.7228C9.81931 16.5932 5.25177 11.9208 5.12492 6.08553V6.08155C5.12492 6.07169 5.12492 6.05991 5.12304 6.05018C5.11728 5.99127 5.11541 5.93044 5.11541 5.86551C5.12304 5.85208 5.12304 5.83838 5.12304 5.82468L5.12328 5.82473Z" fill="white"/>
<path d="M12.8136 2.90881C16.1601 2.90881 18.8808 5.69372 18.8808 9.11512C18.8808 9.33706 19.0555 9.51585 19.2725 9.51585C19.4895 9.51585 19.6643 9.33706 19.6643 9.11512C19.6643 5.25196 16.5922 2.10742 12.8136 2.10742C12.5967 2.10742 12.4219 2.28621 12.4219 2.50815C12.4219 2.72995 12.5965 2.90874 12.8135 2.90874L12.8136 2.90881Z" fill="white"/>
<path d="M12.8136 4.90857C15.0811 4.90857 16.9241 6.79599 16.9241 9.11333C16.9241 9.33526 17.0988 9.51406 17.3158 9.51406C17.5328 9.51406 17.7076 9.33527 17.7076 9.11333C17.7076 6.35388 15.513 4.10718 12.8136 4.10718C12.5967 4.10718 12.4219 4.28596 12.4219 4.50791C12.4219 4.72971 12.5965 4.9085 12.8135 4.9085L12.8136 4.90857Z" fill="white"/>
<path d="M12.8135 6.91021C14.002 6.91021 14.9677 7.89811 14.9677 9.11384C14.9677 9.33577 15.1425 9.51457 15.3595 9.51457C15.5764 9.51457 15.7512 9.33578 15.7512 9.11384C15.7512 7.45613 14.4342 6.10889 12.8136 6.10889C12.5967 6.10889 12.4219 6.28767 12.4219 6.50962C12.4219 6.7295 12.5965 6.91021 12.8135 6.91021Z" fill="white"/>
</svg>
