<svg width="18" height="19" viewBox="0 0 18 19" fill="none" xmlns="http://www.w3.org/2000/svg">
<path d="M0.401805 9.83345C0.414548 9.80412 0.431076 9.77854 0.450058 9.7572L0.448847 9.75612L3.94668 5.88381L3.94672 5.88384L3.95063 5.87936C3.99564 5.82792 4.0495 5.80643 4.09701 5.8057L0.401805 9.83345ZM0.401805 9.83345C0.401063 9.83591 0.400391 9.83806 0.399819 9.83986C0.39938 9.84124 0.398921 9.84265 0.398474 9.84401L0.380417 9.90735C0.37697 9.92635 0.375118 9.94608 0.375016 9.9663V9.97035C0.375773 10.0078 0.382699 10.0447 0.39501 10.0786L0.398385 10.0879L0.399568 10.0918C0.409069 10.1145 0.420654 10.1349 0.433607 10.1526L0.452376 10.1728C0.469869 10.1915 0.488622 10.206 0.50783 10.2168L0.527186 10.225C0.549602 10.2346 0.572103 10.2389 0.593698 10.2388L0.595252 10.2388L2.6741 10.2388H3.04913L3.04911 10.6139L3.04884 16.4763C3.04884 16.4763 3.04884 16.4763 3.04884 16.4763C3.04884 16.7917 3.16347 17.0884 3.35826 17.3024C3.5517 17.5149 3.80651 17.6272 4.06445 17.628C4.06456 17.628 4.06468 17.628 4.0648 17.628L9.0019 17.628H9.01355H10.9001H10.9117H10.9234H13.9391C14.1968 17.628 14.4519 17.516 14.6457 17.3038L14.6459 17.3035C14.8408 17.0906 14.9559 16.7945 14.9566 16.479C14.9566 16.4789 14.9566 16.4788 14.9566 16.4786L14.9566 14.7784C14.9566 14.5912 14.8258 14.4994 14.7347 14.4994H14.7285C14.6382 14.5034 14.5131 14.5951 14.5131 14.7783V16.4792V16.4863L14.513 16.4863C14.5076 16.7762 14.283 17.0686 13.9384 17.0678H13.9391V16.6928L13.938 17.0678L0.401805 9.83345ZM3.37656 7.25519L3.53584 7.07892L4.23849 6.3013L4.24244 6.29693L4.24248 6.29696C4.28913 6.24693 4.321 6.17159 4.32127 6.08576C4.32154 6.00073 4.29025 5.92497 4.24355 5.87419C4.19768 5.82462 4.14407 5.80499 4.09703 5.8057L3.37656 7.25519ZM3.37656 7.25519L3.46789 7.47451M3.37656 7.25519L3.46789 7.47451M3.46789 7.47451C3.48342 7.51182 3.49215 7.55419 3.49235 7.59838L3.46789 7.47451ZM2.67408 10.9889H2.6741V10.6138L2.29908 10.6138V10.6138L2.67408 10.9889ZM0.344615 9.66342L0.170176 9.50828H0.172865L0.344615 9.66342ZM1.7475 9.06002L1.18229 9.68629H2.0259H2.67389H3.04891V9.31128V8.59329V7.61803L2.39549 8.34203L1.7475 9.06002ZM7.68906 12.277H7.31404L7.31404 12.6521L7.31411 16.6907L7.31412 17.0657H7.68913H8.99034H9.002H10.3149H10.6899V16.6907V12.6521V12.277H10.3149H7.68906Z" stroke="white" stroke-width="0.750033"/>
<path d="M9.14159 0.451711L9.22461 0.56873H9.25419L17.5283 9.733C17.5335 9.74032 17.5393 9.74795 17.5457 9.75572L17.5456 9.75584L17.5534 9.76463C17.5707 9.78428 17.5866 9.80863 17.5993 9.83716C17.6004 9.84101 17.6017 9.84523 17.6031 9.84974L17.6029 9.8498L17.6072 9.86164C17.6408 9.956 17.6282 10.0626 17.5787 10.1414L17.8963 10.3408M9.14159 0.451711L9.79143 0.604158L17.828 9.50538C17.8299 9.50706 17.8308 9.50919 17.8317 9.51133C17.8324 9.51308 17.8332 9.51483 17.8344 9.51633C17.8857 9.57444 17.9268 9.64289 17.9557 9.71773C17.9567 9.72077 17.9573 9.72374 17.958 9.7267C17.9587 9.72967 17.9594 9.73263 17.9604 9.73568C18.032 9.93647 18.0079 10.1631 17.8963 10.3408M9.14159 0.451711C9.13936 0.450302 9.13713 0.448966 9.13489 0.4477L9.10112 0.428592L9.07197 0.402973C9.06945 0.400751 9.06691 0.39861 9.06437 0.396548L8.98811 0.385847L8.97469 0.390011L8.93513 0.393579C8.93379 0.3937 8.93244 0.393841 8.93108 0.394M9.14159 0.451711L8.93108 0.394M17.8963 10.3408C17.7847 10.5182 17.6002 10.6237 17.4034 10.6219H15.7019H15.3269V10.9969V12.5975C15.3269 12.959 15.0596 13.2516 14.7299 13.2516C14.4005 13.2516 14.1333 12.959 14.1333 12.5975V7.59724C14.1333 7.50506 14.1513 7.41409 14.186 7.33013L9.24978 1.86333L9.27543 1.83494L8.99715 1.58355L8.71881 1.83487L8.74445 1.86327L5.9068 5.00431C5.79608 5.13087 5.64372 5.20358 5.4836 5.20601C5.32376 5.20844 5.16974 5.1403 5.05596 5.01678C4.94218 4.89357 4.87835 4.72533 4.87891 4.54979C4.87946 4.37455 4.94412 4.20662 5.05846 4.08401L8.46443 0.312362L8.57343 0.327657V0.566681H8.57592H8.74007M17.8963 10.3408L17.5788 10.1411C17.5308 10.2175 17.463 10.2474 17.4069 10.2469V10.2469H17.4034H15.3269H14.9518V10.6219V12.5975C14.9518 12.7848 14.821 12.8766 14.7299 12.8766C14.6392 12.8766 14.5083 12.7849 14.5083 12.5975V7.59724C14.5083 7.55379 14.5169 7.51151 14.5326 7.47332L14.623 7.25451L14.4644 7.0788L9.27549 1.33222L8.99722 1.02404L8.71888 1.33215L5.62853 4.75292L5.62849 4.75289L5.62456 4.75738C5.57962 4.80875 5.52578 4.83031 5.4779 4.83104C5.43078 4.83176 5.37735 4.81216 5.33178 4.7627L5.33147 4.76236C5.28511 4.71216 5.25365 4.63658 5.25392 4.55098C5.2542 4.46536 5.28612 4.38975 5.33272 4.33978L5.33275 4.33981L5.33678 4.33535L8.74007 0.566681M8.74007 0.566681H8.76967L8.85449 0.44713C8.85834 0.444562 8.86221 0.442195 8.86608 0.440028L8.89882 0.421684L8.92727 0.397217C8.92855 0.396124 8.92981 0.395051 8.93108 0.394M8.74007 0.566681L8.93108 0.394M15.6036 8.34188L14.9479 7.61536L14.9502 8.594L14.9519 9.31199L14.9527 9.68614H15.3269H15.9732H16.8168L16.2516 9.05986L15.6036 8.34188Z" stroke="white" stroke-width="0.750033"/>
<path d="M10.916 8.98596H7.09692C7.09692 8.98596 7.09692 8.98596 7.09691 8.98596C7.00594 8.98595 6.87502 8.89396 6.87502 8.70688C6.87502 8.51939 7.00606 8.42751 7.09692 8.42751H10.916C11.0069 8.42751 11.1379 8.51939 11.1379 8.70688C11.1379 8.89396 11.007 8.98596 10.916 8.98596Z" stroke="white" stroke-width="0.750033"/>
</svg>
