<svg width="40" height="40" viewBox="0 0 40 40" fill="none" xmlns="http://www.w3.org/2000/svg">
<path d="M32.9685 19.9217V23.1533L30.6255 20.8103C30.1867 21.2457 28.8722 22.582 21.1719 30.1798V39.9994H32.9685V36.522L39.9996 30.1401V14.0625H38.8277C35.5969 14.0625 32.9685 16.691 32.9685 19.9217ZM37.6559 29.1022L30.6248 35.4841V37.6557H23.5156V31.1597C24.6592 30.0308 28.348 26.388 30.624 24.1234L32.276 25.7753L26.2071 31.7775L27.8552 33.4438L35.3122 26.0688V19.9217C35.3122 18.394 36.2918 17.0906 37.6559 16.607V29.1022Z" fill="#00BF71"/>
<path d="M7.03109 39.9994H18.8277V30.1798C10.9515 22.4084 9.9457 21.3776 9.37408 20.8103L7.03109 23.1533V19.9217C7.03109 16.691 4.40263 14.0625 1.17185 14.0625H0V30.1401L7.03109 36.522V39.9994ZM2.34369 29.1022V16.607C3.7078 17.0907 4.68739 18.394 4.68739 19.9218V26.065L12.0617 33.4393L13.719 31.7821L7.71794 25.7811L9.37564 24.1234C11.6516 26.3881 15.3405 30.0309 16.4841 31.1598V37.6558H9.37486V35.4842L2.34369 29.1022Z" fill="#00BF71"/>
<path d="M30.5672 7.18827C32.0325 7.18827 33.2461 6.95054 34.4063 5.79026L35.2348 4.96168L30.2731 0L29.4445 0.828496C28.2842 1.98863 28.0464 3.20211 28.0464 4.66731V5.42855L27.6968 5.68932C25.7709 3.63242 23.0331 2.34471 19.9998 2.34471C14.1843 2.34471 9.45312 7.07593 9.45312 12.8913C9.45312 18.7068 14.1843 23.438 19.9998 23.438C25.8152 23.438 30.5464 18.7068 30.5464 12.8913C30.5464 10.9502 30.0187 9.13033 29.1001 7.56646L29.6071 7.18835H30.5672V7.18827ZM30.3901 4.66731C30.3901 4.19303 30.4178 3.83147 30.4897 3.53109L31.7036 4.74505C31.4032 4.817 31.0414 4.84457 30.5672 4.84457H30.3901V4.66731H30.3901ZM28.2027 12.8913C28.2027 17.4144 24.5229 21.0942 19.9998 21.0942C15.4767 21.0942 11.7968 17.4144 11.7968 12.8913C11.7968 8.36816 15.4767 4.68833 19.9998 4.68833C22.2649 4.68833 24.3183 5.6112 25.8042 7.10062L23.8982 8.52207C22.8616 7.59623 21.4956 7.03202 19.9998 7.03202C16.769 7.03202 14.1405 9.66048 14.1405 12.8913C14.1405 16.122 16.769 18.7505 19.9998 18.7505C23.2305 18.7505 25.859 16.122 25.859 12.8913C25.859 12.0006 25.6583 11.1561 25.3013 10.3994L27.2076 8.97784C27.8419 10.1416 28.2027 11.4751 28.2027 12.8913ZM23.5153 12.8913C23.5153 14.8297 21.9382 16.4068 19.9998 16.4068C18.0613 16.4068 16.4842 14.8297 16.4842 12.8913C16.4842 10.9528 18.0613 9.37572 19.9998 9.37572C20.7229 9.37572 21.3956 9.5954 21.955 9.97125L19.2991 11.9519L20.7004 13.8307L23.3576 11.849C23.4601 12.1785 23.5153 12.5285 23.5153 12.8913Z" fill="#00BF71"/>
</svg>
