<svg width="16" height="16" viewBox="0 0 16 16" fill="none" xmlns="http://www.w3.org/2000/svg">
<g clip-path="url(#clip0_1308_11137)">
<mask id="path-1-inside-1_1308_11137" fill="white">
<path d="M14.3123 7.02564C13.8741 5.95625 13.4914 4.86497 13.1658 3.75614C13.1066 3.53613 13.0574 3.31357 13.0183 3.08914C12.8458 2.19414 12.5858 0.841137 11.2928 0.826637C10.7128 0.826637 10.2193 1.20014 9.96928 1.81514L9.88528 1.63214C9.77278 1.38664 9.65728 1.13314 9.51078 0.889137C9.35779 0.63468 9.15407 0.414442 8.91228 0.242137C8.51428 -0.0398626 8.01528 -0.0763626 7.66728 0.158637C7.44928 0.305137 7.28478 0.543137 7.20428 0.829137C7.10428 1.18614 7.11378 1.55714 7.14978 1.88264C7.11828 1.82764 7.08628 1.77014 7.05378 1.71164C6.78628 1.22864 6.41928 0.567637 5.64928 0.475637C5.13928 0.416137 4.61828 0.654137 4.35128 1.07314C4.13278 1.41664 4.12878 1.78064 4.19278 2.10564C4.11416 2.05705 4.03051 2.01715 3.94328 1.98664C3.82123 1.94332 3.69278 1.92084 3.56328 1.92014C2.71678 1.92014 2.25828 2.88114 2.20278 3.56364C2.13828 4.36414 2.43628 5.10264 2.74678 5.79064C2.89128 6.11164 3.04278 6.42914 3.19428 6.74764C3.30178 6.97364 3.40928 7.19914 3.51478 7.42714C3.58428 7.57564 3.65178 7.72464 3.71828 7.87464C3.41411 7.75068 3.10106 7.64973 2.78178 7.57264C2.11828 7.42264 1.31478 7.67264 0.872277 8.16414C0.596277 8.46914 0.466777 8.84964 0.507277 9.23464C0.579277 9.92214 1.14328 10.3906 1.48078 10.6701L5.02378 13.6086C5.99428 14.4131 7.09478 15.3256 8.44628 15.7496C8.97528 15.9156 9.53228 15.9996 10.1023 15.9996C11.1443 15.9996 12.1903 15.7081 13.0468 15.1786C14.3348 14.3826 15.2343 13.0006 15.4533 11.4816L15.4703 11.3451C15.6268 9.97514 15.1343 8.87814 14.6583 7.81714C14.5384 7.55531 14.423 7.29144 14.3123 7.02564ZM14.4758 11.2351L14.4623 11.3401C14.2858 12.5686 13.5598 13.6856 12.5208 14.3281C11.8198 14.7611 10.9608 14.9996 10.1018 14.9996C9.64203 15.001 9.18477 14.9322 8.74578 14.7956C7.58128 14.4301 6.60578 13.6211 5.66228 12.8386L2.11928 9.90064C1.82128 9.65364 1.52828 9.39064 1.50128 9.13064C1.49728 9.09264 1.48578 8.97664 1.61478 8.83314C1.78028 8.64964 2.08228 8.52664 2.36628 8.52664C2.43428 8.52664 2.50028 8.53364 2.54978 8.54514C3.04378 8.66864 3.41778 8.81114 3.72528 8.99164L3.79278 9.03714C4.05328 9.21714 4.28928 9.36564 4.54128 9.36564C4.72728 9.36564 4.89628 9.28314 5.00528 9.13914C5.13078 8.97264 5.15778 8.75714 5.08378 8.49764C5.03582 8.34232 4.97199 8.19236 4.89328 8.05014C4.86178 7.98914 4.82978 7.92814 4.80328 7.86564C4.68195 7.57625 4.55475 7.28936 4.42178 7.00514C4.31528 6.77514 4.20628 6.54614 4.09728 6.31664C3.94878 6.00464 3.80028 5.69314 3.65828 5.37814C3.40128 4.80964 3.15428 4.20714 3.19978 3.64364C3.22928 3.27764 3.45078 2.92014 3.56328 2.92014C3.58088 2.92095 3.59826 2.92449 3.61478 2.93064C3.74128 2.97464 3.87528 3.15814 4.00478 3.33564C4.05578 3.40564 4.10578 3.47414 4.15678 3.53764C4.81078 4.35464 5.35478 5.26814 5.83978 6.10414C5.92628 6.28014 6.00628 6.41864 6.09428 6.54514C6.16624 6.65298 6.27736 6.72858 6.4041 6.75593C6.53084 6.78327 6.66324 6.76021 6.77328 6.69164C7.00228 6.54914 7.07678 6.24964 6.94228 6.01614L6.73728 5.66314C6.70222 5.59098 6.66789 5.51848 6.63428 5.44564L6.56078 5.28764C6.35326 4.85043 6.15439 4.40918 5.96428 3.96414L5.82678 3.64414C5.65628 3.25014 5.49528 2.87764 5.36128 2.49264L5.30678 2.34064C5.18478 2.00314 5.10478 1.75314 5.19528 1.61114C5.25128 1.52214 5.36528 1.45764 5.53128 1.46964C5.77378 1.49864 5.95328 1.78964 6.17928 2.19764C6.22578 2.28114 6.27078 2.36264 6.31578 2.43814C6.58628 2.89314 6.84478 3.37164 7.09478 3.83414L7.27428 4.16664C7.36078 4.32614 7.44428 4.49164 7.52778 4.65764C7.74478 5.08664 7.96878 5.53064 8.26528 5.92814C8.33453 6.01971 8.43312 6.08471 8.54457 6.11228C8.65602 6.13985 8.77355 6.1283 8.87751 6.07958C8.98146 6.03085 9.06552 5.9479 9.11563 5.84461C9.16574 5.74131 9.17885 5.62394 9.15278 5.51214C9.13093 5.42001 9.10439 5.32906 9.07328 5.23964L8.97428 4.96464C8.91626 4.79944 8.85959 4.63376 8.80428 4.46764C8.70435 4.16912 8.61067 3.86856 8.52328 3.56614C8.35778 2.98914 8.25528 2.54364 8.19028 2.12164C8.14178 1.80114 8.08078 1.40264 8.16628 1.10064C8.18328 1.03864 8.20728 1.00564 8.20228 0.999637C8.24976 1.00914 8.29451 1.02912 8.33328 1.05814C8.45928 1.14764 8.57278 1.26964 8.65228 1.40314C8.77028 1.59964 8.86978 1.81764 8.97528 2.04764C9.04678 2.20364 9.11778 2.35864 9.19428 2.50914C9.29278 2.70114 9.50078 3.29414 9.66778 3.77064C9.83528 4.24814 9.98028 4.66064 10.0763 4.86964C10.1289 4.99131 10.2276 5.0871 10.3508 5.13596C10.474 5.18481 10.6116 5.18272 10.7333 5.13014C10.8549 5.07756 10.9507 4.9788 10.9996 4.85559C11.0484 4.73238 11.0464 4.59481 10.9938 4.47314C10.9328 4.27214 10.7418 3.08914 10.7373 2.91064C10.7543 2.71064 10.7938 2.50914 10.8583 2.29464C10.8728 2.24664 11.0083 1.82664 11.2963 1.82664C11.6903 1.83114 11.8428 2.27814 12.0358 3.27814C12.0878 3.54814 12.1363 3.80264 12.2053 4.03764C12.541 5.17954 12.9353 6.30336 13.3868 7.40464C13.5018 7.68664 13.6248 7.95864 13.7448 8.22664C14.2048 9.25064 14.6018 10.1346 14.4758 11.2351Z"/>
</mask>
<path d="M14.3123 7.02564C13.8741 5.95625 13.4914 4.86497 13.1658 3.75614C13.1066 3.53613 13.0574 3.31357 13.0183 3.08914C12.8458 2.19414 12.5858 0.841137 11.2928 0.826637C10.7128 0.826637 10.2193 1.20014 9.96928 1.81514L9.88528 1.63214C9.77278 1.38664 9.65728 1.13314 9.51078 0.889137C9.35779 0.63468 9.15407 0.414442 8.91228 0.242137C8.51428 -0.0398626 8.01528 -0.0763626 7.66728 0.158637C7.44928 0.305137 7.28478 0.543137 7.20428 0.829137C7.10428 1.18614 7.11378 1.55714 7.14978 1.88264C7.11828 1.82764 7.08628 1.77014 7.05378 1.71164C6.78628 1.22864 6.41928 0.567637 5.64928 0.475637C5.13928 0.416137 4.61828 0.654137 4.35128 1.07314C4.13278 1.41664 4.12878 1.78064 4.19278 2.10564C4.11416 2.05705 4.03051 2.01715 3.94328 1.98664C3.82123 1.94332 3.69278 1.92084 3.56328 1.92014C2.71678 1.92014 2.25828 2.88114 2.20278 3.56364C2.13828 4.36414 2.43628 5.10264 2.74678 5.79064C2.89128 6.11164 3.04278 6.42914 3.19428 6.74764C3.30178 6.97364 3.40928 7.19914 3.51478 7.42714C3.58428 7.57564 3.65178 7.72464 3.71828 7.87464C3.41411 7.75068 3.10106 7.64973 2.78178 7.57264C2.11828 7.42264 1.31478 7.67264 0.872277 8.16414C0.596277 8.46914 0.466777 8.84964 0.507277 9.23464C0.579277 9.92214 1.14328 10.3906 1.48078 10.6701L5.02378 13.6086C5.99428 14.4131 7.09478 15.3256 8.44628 15.7496C8.97528 15.9156 9.53228 15.9996 10.1023 15.9996C11.1443 15.9996 12.1903 15.7081 13.0468 15.1786C14.3348 14.3826 15.2343 13.0006 15.4533 11.4816L15.4703 11.3451C15.6268 9.97514 15.1343 8.87814 14.6583 7.81714C14.5384 7.55531 14.423 7.29144 14.3123 7.02564ZM14.4758 11.2351L14.4623 11.3401C14.2858 12.5686 13.5598 13.6856 12.5208 14.3281C11.8198 14.7611 10.9608 14.9996 10.1018 14.9996C9.64203 15.001 9.18477 14.9322 8.74578 14.7956C7.58128 14.4301 6.60578 13.6211 5.66228 12.8386L2.11928 9.90064C1.82128 9.65364 1.52828 9.39064 1.50128 9.13064C1.49728 9.09264 1.48578 8.97664 1.61478 8.83314C1.78028 8.64964 2.08228 8.52664 2.36628 8.52664C2.43428 8.52664 2.50028 8.53364 2.54978 8.54514C3.04378 8.66864 3.41778 8.81114 3.72528 8.99164L3.79278 9.03714C4.05328 9.21714 4.28928 9.36564 4.54128 9.36564C4.72728 9.36564 4.89628 9.28314 5.00528 9.13914C5.13078 8.97264 5.15778 8.75714 5.08378 8.49764C5.03582 8.34232 4.97199 8.19236 4.89328 8.05014C4.86178 7.98914 4.82978 7.92814 4.80328 7.86564C4.68195 7.57625 4.55475 7.28936 4.42178 7.00514C4.31528 6.77514 4.20628 6.54614 4.09728 6.31664C3.94878 6.00464 3.80028 5.69314 3.65828 5.37814C3.40128 4.80964 3.15428 4.20714 3.19978 3.64364C3.22928 3.27764 3.45078 2.92014 3.56328 2.92014C3.58088 2.92095 3.59826 2.92449 3.61478 2.93064C3.74128 2.97464 3.87528 3.15814 4.00478 3.33564C4.05578 3.40564 4.10578 3.47414 4.15678 3.53764C4.81078 4.35464 5.35478 5.26814 5.83978 6.10414C5.92628 6.28014 6.00628 6.41864 6.09428 6.54514C6.16624 6.65298 6.27736 6.72858 6.4041 6.75593C6.53084 6.78327 6.66324 6.76021 6.77328 6.69164C7.00228 6.54914 7.07678 6.24964 6.94228 6.01614L6.73728 5.66314C6.70222 5.59098 6.66789 5.51848 6.63428 5.44564L6.56078 5.28764C6.35326 4.85043 6.15439 4.40918 5.96428 3.96414L5.82678 3.64414C5.65628 3.25014 5.49528 2.87764 5.36128 2.49264L5.30678 2.34064C5.18478 2.00314 5.10478 1.75314 5.19528 1.61114C5.25128 1.52214 5.36528 1.45764 5.53128 1.46964C5.77378 1.49864 5.95328 1.78964 6.17928 2.19764C6.22578 2.28114 6.27078 2.36264 6.31578 2.43814C6.58628 2.89314 6.84478 3.37164 7.09478 3.83414L7.27428 4.16664C7.36078 4.32614 7.44428 4.49164 7.52778 4.65764C7.74478 5.08664 7.96878 5.53064 8.26528 5.92814C8.33453 6.01971 8.43312 6.08471 8.54457 6.11228C8.65602 6.13985 8.77355 6.1283 8.87751 6.07958C8.98146 6.03085 9.06552 5.9479 9.11563 5.84461C9.16574 5.74131 9.17885 5.62394 9.15278 5.51214C9.13093 5.42001 9.10439 5.32906 9.07328 5.23964L8.97428 4.96464C8.91626 4.79944 8.85959 4.63376 8.80428 4.46764C8.70435 4.16912 8.61067 3.86856 8.52328 3.56614C8.35778 2.98914 8.25528 2.54364 8.19028 2.12164C8.14178 1.80114 8.08078 1.40264 8.16628 1.10064C8.18328 1.03864 8.20728 1.00564 8.20228 0.999637C8.24976 1.00914 8.29451 1.02912 8.33328 1.05814C8.45928 1.14764 8.57278 1.26964 8.65228 1.40314C8.77028 1.59964 8.86978 1.81764 8.97528 2.04764C9.04678 2.20364 9.11778 2.35864 9.19428 2.50914C9.29278 2.70114 9.50078 3.29414 9.66778 3.77064C9.83528 4.24814 9.98028 4.66064 10.0763 4.86964C10.1289 4.99131 10.2276 5.0871 10.3508 5.13596C10.474 5.18481 10.6116 5.18272 10.7333 5.13014C10.8549 5.07756 10.9507 4.9788 10.9996 4.85559C11.0484 4.73238 11.0464 4.59481 10.9938 4.47314C10.9328 4.27214 10.7418 3.08914 10.7373 2.91064C10.7543 2.71064 10.7938 2.50914 10.8583 2.29464C10.8728 2.24664 11.0083 1.82664 11.2963 1.82664C11.6903 1.83114 11.8428 2.27814 12.0358 3.27814C12.0878 3.54814 12.1363 3.80264 12.2053 4.03764C12.541 5.17954 12.9353 6.30336 13.3868 7.40464C13.5018 7.68664 13.6248 7.95864 13.7448 8.22664C14.2048 9.25064 14.6018 10.1346 14.4758 11.2351Z" fill="white" stroke="white" stroke-width="2" mask="url(#path-1-inside-1_1308_11137)"/>
<path d="M12.7566 9.69476L12.5151 9.64121L12.7566 9.69476Z" fill="white" stroke="white"/>
</g>
<defs>
<clipPath id="clip0_1308_11137">
<rect width="16" height="16" fill="white"/>
</clipPath>
</defs>
</svg>
